<mxfile host="app.diagrams.net" agent="Mozilla/5.0 (Windows NT 10.0; Win64; x64) AppleWebKit/537.36 (KHTML, like Gecko) Chrome/130.0.0.0 Safari/537.36" version="24.8.8">
  <diagram name="Page-1" id="IP5PcsLuMwjVdgC3IFHj">
    <mxGraphModel dx="656" dy="-496" grid="1" gridSize="10" guides="1" tooltips="1" connect="1" arrows="1" fold="1" page="1" pageScale="1" pageWidth="1169" pageHeight="827" math="0" shadow="0">
      <root>
        <mxCell id="0" />
        <mxCell id="1" parent="0" />
        <mxCell id="zSrM0MMHdAZ7RIDt7CWr-1" value="Menentukan Durasi Hijau" style="swimlane;html=1;childLayout=stackLayout;resizeParent=1;resizeParentMax=0;horizontal=0;startSize=20;horizontalStack=0;fontSize=10;" vertex="1" parent="1">
          <mxGeometry x="40" y="890" width="1210" height="300" as="geometry" />
        </mxCell>
        <mxCell id="zSrM0MMHdAZ7RIDt7CWr-2" value="app YOLO" style="swimlane;html=1;startSize=20;horizontal=0;" vertex="1" parent="zSrM0MMHdAZ7RIDt7CWr-1">
          <mxGeometry x="20" width="1190" height="140" as="geometry" />
        </mxCell>
        <mxCell id="zSrM0MMHdAZ7RIDt7CWr-3" value="" style="edgeStyle=orthogonalEdgeStyle;rounded=0;orthogonalLoop=1;jettySize=auto;html=1;" edge="1" parent="zSrM0MMHdAZ7RIDt7CWr-2" source="zSrM0MMHdAZ7RIDt7CWr-4" target="zSrM0MMHdAZ7RIDt7CWr-5">
          <mxGeometry relative="1" as="geometry" />
        </mxCell>
        <mxCell id="zSrM0MMHdAZ7RIDt7CWr-4" value="start" style="ellipse;whiteSpace=wrap;html=1;fontSize=10;" vertex="1" parent="zSrM0MMHdAZ7RIDt7CWr-2">
          <mxGeometry x="40" y="40" width="40" height="40" as="geometry" />
        </mxCell>
        <mxCell id="zSrM0MMHdAZ7RIDt7CWr-5" value="&lt;span style=&quot;font-size: 10px;&quot;&gt;streaming&amp;nbsp;&lt;/span&gt;&lt;div&gt;&lt;span style=&quot;font-size: 10px;&quot;&gt;CCTV&lt;/span&gt;&lt;/div&gt;" style="rounded=1;whiteSpace=wrap;html=1;fontFamily=Helvetica;fontSize=12;fontColor=#000000;align=center;" vertex="1" parent="zSrM0MMHdAZ7RIDt7CWr-2">
          <mxGeometry x="111" y="40" width="80" height="40" as="geometry" />
        </mxCell>
        <mxCell id="zSrM0MMHdAZ7RIDt7CWr-29" style="edgeStyle=orthogonalEdgeStyle;rounded=0;orthogonalLoop=1;jettySize=auto;html=1;entryX=0;entryY=0.5;entryDx=0;entryDy=0;" edge="1" parent="zSrM0MMHdAZ7RIDt7CWr-2" source="zSrM0MMHdAZ7RIDt7CWr-6" target="zSrM0MMHdAZ7RIDt7CWr-8">
          <mxGeometry relative="1" as="geometry" />
        </mxCell>
        <mxCell id="zSrM0MMHdAZ7RIDt7CWr-6" value="&lt;span style=&quot;font-size: 10px;&quot;&gt;batasi area deteksi kendaraan&lt;/span&gt;" style="rounded=1;whiteSpace=wrap;html=1;fontFamily=Helvetica;fontSize=12;fontColor=#000000;align=center;" vertex="1" parent="zSrM0MMHdAZ7RIDt7CWr-2">
          <mxGeometry x="230" y="36" width="100" height="48" as="geometry" />
        </mxCell>
        <mxCell id="zSrM0MMHdAZ7RIDt7CWr-7" style="edgeStyle=orthogonalEdgeStyle;rounded=0;orthogonalLoop=1;jettySize=auto;html=1;" edge="1" parent="zSrM0MMHdAZ7RIDt7CWr-2" source="zSrM0MMHdAZ7RIDt7CWr-5">
          <mxGeometry relative="1" as="geometry">
            <mxPoint x="230" y="60" as="targetPoint" />
          </mxGeometry>
        </mxCell>
        <mxCell id="zSrM0MMHdAZ7RIDt7CWr-8" value="&lt;font style=&quot;font-size: 10px;&quot;&gt;deteksi&amp;nbsp;&lt;/font&gt;&lt;div&gt;&lt;font style=&quot;font-size: 10px;&quot;&gt;kendaraan&lt;/font&gt;&lt;/div&gt;" style="rounded=1;whiteSpace=wrap;html=1;fontColor=#000000;" vertex="1" parent="zSrM0MMHdAZ7RIDt7CWr-2">
          <mxGeometry x="370" y="40" width="90" height="40" as="geometry" />
        </mxCell>
        <mxCell id="zSrM0MMHdAZ7RIDt7CWr-30" value="" style="rhombus;whiteSpace=wrap;html=1;" vertex="1" parent="zSrM0MMHdAZ7RIDt7CWr-2">
          <mxGeometry x="939" y="20" width="80" height="80" as="geometry" />
        </mxCell>
        <mxCell id="zSrM0MMHdAZ7RIDt7CWr-32" value="&lt;font style=&quot;font-size: 9px;&quot;&gt;perhitungan&amp;nbsp;&lt;/font&gt;&lt;div&gt;&lt;font style=&quot;font-size: 9px;&quot;&gt;berhasil?&lt;/font&gt;&lt;/div&gt;" style="text;html=1;align=center;verticalAlign=middle;resizable=0;points=[];autosize=1;strokeColor=none;fillColor=none;" vertex="1" parent="zSrM0MMHdAZ7RIDt7CWr-2">
          <mxGeometry x="944" y="40" width="70" height="40" as="geometry" />
        </mxCell>
        <mxCell id="zSrM0MMHdAZ7RIDt7CWr-9" value="Traffic Light Controller" style="swimlane;html=1;startSize=20;horizontal=0;" vertex="1" parent="zSrM0MMHdAZ7RIDt7CWr-1">
          <mxGeometry x="20" y="140" width="1190" height="160" as="geometry" />
        </mxCell>
        <mxCell id="zSrM0MMHdAZ7RIDt7CWr-27" value="&lt;span style=&quot;font-size: 10px;&quot;&gt;menatapkan durasi nyala lampu hijau&lt;/span&gt;" style="whiteSpace=wrap;html=1;fontColor=#000000;rounded=1;" vertex="1" parent="zSrM0MMHdAZ7RIDt7CWr-9">
          <mxGeometry x="300" y="54" width="111" height="45" as="geometry" />
        </mxCell>
        <mxCell id="zSrM0MMHdAZ7RIDt7CWr-13" value="" style="edgeStyle=orthogonalEdgeStyle;rounded=0;orthogonalLoop=1;jettySize=auto;html=1;" edge="1" parent="1" source="zSrM0MMHdAZ7RIDt7CWr-14" target="zSrM0MMHdAZ7RIDt7CWr-16">
          <mxGeometry relative="1" as="geometry" />
        </mxCell>
        <mxCell id="zSrM0MMHdAZ7RIDt7CWr-14" value="&lt;font style=&quot;font-size: 10px;&quot;&gt;klasifikasikan jenis kendaraan&lt;/font&gt;" style="rounded=1;whiteSpace=wrap;html=1;fontColor=#000000;" vertex="1" parent="1">
          <mxGeometry x="550" y="930" width="102" height="40" as="geometry" />
        </mxCell>
        <mxCell id="zSrM0MMHdAZ7RIDt7CWr-15" style="edgeStyle=orthogonalEdgeStyle;rounded=0;orthogonalLoop=1;jettySize=auto;html=1;entryX=0;entryY=0.5;entryDx=0;entryDy=0;" edge="1" parent="1" source="zSrM0MMHdAZ7RIDt7CWr-16" target="zSrM0MMHdAZ7RIDt7CWr-17">
          <mxGeometry relative="1" as="geometry" />
        </mxCell>
        <mxCell id="zSrM0MMHdAZ7RIDt7CWr-16" value="&lt;span style=&quot;font-size: 10px;&quot;&gt;hitung jumlah tiap jenis kendaraan&lt;/span&gt;" style="whiteSpace=wrap;html=1;fontColor=#000000;rounded=1;" vertex="1" parent="1">
          <mxGeometry x="687" y="920" width="120" height="60" as="geometry" />
        </mxCell>
        <mxCell id="zSrM0MMHdAZ7RIDt7CWr-31" style="edgeStyle=orthogonalEdgeStyle;rounded=0;orthogonalLoop=1;jettySize=auto;html=1;entryX=0;entryY=0.5;entryDx=0;entryDy=0;" edge="1" parent="1" source="zSrM0MMHdAZ7RIDt7CWr-17" target="zSrM0MMHdAZ7RIDt7CWr-30">
          <mxGeometry relative="1" as="geometry" />
        </mxCell>
        <mxCell id="zSrM0MMHdAZ7RIDt7CWr-17" value="&lt;span style=&quot;font-size: 10px;&quot;&gt;hitung durasi nyala hijau&lt;/span&gt;" style="whiteSpace=wrap;html=1;fontColor=#000000;rounded=1;" vertex="1" parent="1">
          <mxGeometry x="847" y="920" width="100" height="60" as="geometry" />
        </mxCell>
        <mxCell id="zSrM0MMHdAZ7RIDt7CWr-22" value="end" style="ellipse;whiteSpace=wrap;html=1;fontSize=10;" vertex="1" parent="1">
          <mxGeometry x="1194" y="1091" width="40" height="40" as="geometry" />
        </mxCell>
        <mxCell id="zSrM0MMHdAZ7RIDt7CWr-26" style="edgeStyle=orthogonalEdgeStyle;rounded=0;orthogonalLoop=1;jettySize=auto;html=1;entryX=0;entryY=0.5;entryDx=0;entryDy=0;" edge="1" parent="1" source="zSrM0MMHdAZ7RIDt7CWr-8" target="zSrM0MMHdAZ7RIDt7CWr-14">
          <mxGeometry relative="1" as="geometry" />
        </mxCell>
      </root>
    </mxGraphModel>
  </diagram>
</mxfile>
